PathFileType	4	(X/Y/Z)	 s07c0303.trc
DataRate	CameraRate	NumFrames	NumMarkers	Units	OrigDataRate	OrigDataStartFrame	OrigNumFrames
200	200	7	48	mm	200	1751	2000
Frame#	Time	racr			lacr			c7			jug			rlel			rdr			llel			ldr			s2			lic			ric			lasi			rasi			rpsi			lpsi			rgt			lgt			rth1			rth2			rth3			rth4			rlfc			rmfc			rsh1			rsh2			rsh3			rsh4			rlmal			rcal			rtoe			rmt5			lth1			lth2			lth4			lth3			llfc			lmfc			lsh1			lsh2			lsh3			lsh4			llmal			lcal			ltoe			lmt5			SBIKE			LBIKE			RBIKE			
		X1	Y1	Z1	X2	Y2	Z2	X3	Y3	Z3	X4	Y4	Z4	X5	Y5	Z5	X6	Y6	Z6	X7	Y7	Z7	X8	Y8	Z8	X9	Y9	Z9	X10	Y10	Z10	X11	Y11	Z11	X12	Y12	Z12	X13	Y13	Z13	X14	Y14	Z14	X15	Y15	Z15	X16	Y16	Z16	X17	Y17	Z17	X18	Y18	Z18	X19	Y19	Z19	X20	Y20	Z20	X21	Y21	Z21	X22	Y22	Z22	X23	Y23	Z23	X24	Y24	Z24	X25	Y25	Z25	X26	Y26	Z26	X27	Y27	Z27	X28	Y28	Z28	X29	Y29	Z29	X30	Y30	Z30	X31	Y31	Z31	X32	Y32	Z32	X33	Y33	Z33	X34	Y34	Z34	X35	Y35	Z35	X36	Y36	Z36	X37	Y37	Z37	X38	Y38	Z38	X39	Y39	Z39	X40	Y40	Z40	X41	Y41	Z41	X42	Y42	Z42	X43	Y43	Z43	X44	Y44	Z44	X45	Y45	Z45	X46	Y46	Z46	X47	Y47	Z47	X48	Y48	Z48	
1751	8.7550	693.724651	1438.314335	-82.169611	668.194324	1446.666966	-397.502208	672.124358	1498.726988	-236.437723	625.069033	1356.513636	-240.984016	567.485753	1130.415336	52.550024	726.472246	908.305009	-49.193521	560.266046	1131.946264	-500.201514	729.773811	909.355318	-398.375903	77.118447	1323.511328	-225.309281	239.750257	1340.154494	-373.539712	260.427570	1314.303305	-83.402923	251.751266	1255.105844	-351.787907	259.504906	1261.305364	-100.663098	113.868402	1354.921793	-173.098780	124.768069	1363.583627	-281.883955	176.670172	1206.987097	-39.599808	148.504220	1199.661593	-401.515803	280.380840	1080.576581	-36.944453	343.544599	1020.990259	-50.698280	372.188694	940.098805	-52.019665	369.298863	1040.816768	-68.989515	431.446119	821.424369	-85.166318	417.084472	806.758031	-187.407484	369.309240	691.481081	-58.463518	351.316206	605.669326	-79.023625	298.256716	537.368694	-72.405146	364.416672	604.122563	-116.360009	235.335589	411.441425	-72.504054	165.724345	372.571999	-101.265686	454.840598	347.918742	-121.009397	378.589189	317.420817	-48.069943	181.975296	1080.348899	-414.543668	235.037615	1010.090780	-420.630552	269.063287	1024.047017	-416.056552	246.323139	921.929517	-417.648290	295.735170	749.708503	-391.763294	288.308357	735.434278	-299.542561	185.110344	649.739671	-411.256090	138.166321	580.583769	-389.627210	59.055661	537.722589	-395.617510	143.536149	580.598551	-347.719378	-46.694870	454.415298	-391.294509	-129.995858	449.855851	-358.103875	123.068107	307.627694	-354.653553	40.083573	321.617476	-419.318745	-257.033553	964.665502	-231.642223	-75.414741	83.417522	-436.494242	-81.805062	79.953177	-39.059082	
1752	8.7600	692.922348	1438.515822	-82.399247	666.794175	1447.334102	-397.487222	670.705825	1499.197692	-236.574905	624.035891	1357.064388	-241.395228	567.763929	1130.538212	53.002356	726.404028	908.248143	-49.158528	560.390771	1132.144994	-499.937048	729.787858	909.245198	-398.353919	75.467428	1324.912704	-224.841148	238.138669	1341.284545	-373.083220	258.999311	1314.788574	-82.948754	249.898115	1256.126634	-351.336894	257.772846	1261.727432	-100.401457	112.337684	1356.034114	-172.485825	123.220852	1364.869278	-281.297949	174.410830	1207.575738	-39.336154	146.707864	1201.136096	-401.390567	276.693984	1079.886842	-36.547765	339.197226	1019.628956	-50.306752	366.937133	938.418572	-51.650176	365.014562	1039.276878	-68.579267	425.480246	819.605700	-84.570967	411.438967	804.763222	-186.637694	364.749556	688.904523	-58.100180	347.905023	603.015002	-78.763027	295.758545	533.858791	-72.209990	361.115821	601.672196	-116.125365	234.461488	407.216740	-72.613235	165.065641	367.921685	-101.613729	454.443034	345.050616	-120.791136	378.200831	314.021217	-48.034252	180.470450	1081.950924	-414.493422	233.933147	1012.005371	-420.624641	267.802569	1025.881794	-415.693829	245.647036	923.908243	-418.290085	295.745549	751.567169	-392.003254	288.277709	737.354783	-299.629539	184.760853	651.952026	-411.557060	137.437870	582.913153	-389.971800	58.198100	540.681110	-395.781220	142.894314	582.949940	-347.961040	-48.040545	457.641794	-391.323430	-131.236629	452.332791	-358.087052	122.937866	312.072248	-354.642423	39.791530	325.465017	-419.320603	-257.011930	964.667111	-231.635787	-75.421894	83.420389	-436.485282	-81.802538	79.962914	-39.050895	
1753	8.7650	692.018223	1438.644874	-82.930486	665.400867	1447.968530	-397.413935	669.273376	1499.562140	-236.685493	622.833406	1357.326023	-241.754703	567.979208	1130.664512	53.412882	726.344651	908.192552	-49.096308	560.555156	1132.343215	-499.685711	729.829846	909.157238	-398.351801	73.847697	1326.211094	-224.393302	236.583563	1342.320465	-372.662361	257.548597	1315.268059	-82.474093	247.983253	1257.125634	-350.942331	256.058698	1262.184282	-100.006584	110.829601	1357.168364	-171.916019	121.715382	1366.116207	-280.814746	172.122737	1208.163611	-39.080906	144.819463	1202.549895	-401.216732	272.945656	1079.273278	-36.185455	334.835292	1018.480100	-49.930750	361.859567	936.966179	-51.285350	360.849427	1037.652188	-68.354365	419.721907	817.859391	-84.040091	405.890228	803.210112	-185.989069	360.222454	686.691511	-57.694884	344.538436	600.510494	-78.517731	293.287098	530.628332	-72.141431	357.761032	599.273325	-115.841397	233.506432	403.274440	-72.770679	164.483660	363.493470	-101.812318	454.006772	342.386935	-120.526056	377.840512	310.766726	-48.047767	179.042087	1083.466682	-414.324172	232.796532	1013.820119	-420.521636	266.711921	1027.977349	-415.509566	244.950083	925.778612	-418.515064	295.635591	753.307084	-392.153634	288.111844	739.165253	-299.689569	184.266955	654.054918	-411.726009	136.622059	585.323694	-390.103201	57.135109	543.453652	-395.909813	142.126999	585.290135	-348.109718	-49.253521	460.529762	-391.289357	-132.497696	454.612059	-358.021262	122.867940	316.609722	-354.647149	39.601175	329.253685	-419.290411	-257.001150	964.679530	-231.649193	-75.437450	83.578082	-436.606172	-81.802326	79.989438	-39.026530	
1754	8.7700	691.130331	1438.866739	-83.251369	664.008101	1448.562902	-397.202597	667.785884	1499.937743	-236.776128	621.658506	1357.451448	-241.985715	568.163593	1130.774818	53.723290	726.321596	908.088972	-49.024316	560.710349	1132.586705	-499.472746	729.892039	909.087393	-398.361806	72.219822	1327.446178	-223.988553	234.998187	1343.242732	-372.075103	256.069257	1315.652723	-82.069709	246.140950	1257.937840	-350.421136	254.308122	1262.531015	-99.673163	109.329437	1358.169975	-171.380811	120.216643	1367.316402	-280.345627	169.806111	1208.674404	-38.876947	143.068369	1203.844426	-401.057848	269.231770	1078.860277	-35.792725	330.568713	1017.385436	-49.591293	356.828370	935.726534	-50.828428	356.700893	1036.444162	-68.043155	414.050189	816.239307	-83.496122	400.411086	801.647702	-185.450543	355.681755	684.513602	-57.272422	341.158118	598.158052	-78.142525	290.701317	527.671963	-72.010124	354.478748	597.009103	-115.477379	232.495232	399.522524	-72.897393	163.872576	359.247198	-102.171185	453.724087	339.901380	-120.066003	377.353093	307.739944	-47.889139	177.646992	1084.974835	-414.196186	231.791904	1015.532197	-420.301676	265.585410	1029.885352	-415.217519	244.309506	927.552766	-418.614142	295.363575	755.047786	-392.307937	287.894159	740.887719	-299.696163	183.684486	656.081208	-411.752156	135.728831	587.630596	-390.114007	56.104343	546.089982	-395.901173	141.383605	587.470499	-348.224236	-50.655873	463.390216	-391.104888	-134.254835	456.518707	-357.781682	122.819967	321.014563	-354.643243	39.456349	332.855379	-419.271496	-256.987339	964.682180	-231.623216	-75.435551	83.581495	-436.609263	-81.808462	79.978685	-39.044539	
1755	8.7750	690.157667	1438.963283	-83.633211	662.616129	1449.161700	-397.132305	666.301115	1500.227522	-236.853675	620.291572	1357.651622	-242.064791	568.339315	1130.875574	53.969295	726.317031	908.043718	-49.022875	560.882491	1132.821622	-499.254203	729.963863	909.030334	-398.376491	70.619322	1328.617175	-223.604417	233.443054	1344.070040	-371.592473	254.564850	1315.998693	-81.683973	244.270938	1258.695031	-349.937578	252.561829	1262.804938	-99.317668	107.852231	1359.132767	-170.983187	118.721147	1368.370455	-279.912166	167.397316	1209.304601	-38.528234	141.257446	1205.102041	-400.877500	265.533924	1078.571914	-35.475512	326.332083	1016.566344	-49.219785	351.905291	934.676477	-50.375410	352.893444	1035.245015	-68.085497	408.453208	814.788393	-82.860967	395.039062	800.048411	-184.846598	351.066720	682.474853	-56.844718	337.771033	596.041933	-77.660981	288.060144	524.934281	-71.801810	351.290267	594.952572	-115.033401	231.473859	395.878836	-73.257441	163.233212	355.381807	-102.375073	453.064459	337.176343	-119.519214	376.868224	304.453909	-47.956482	176.322446	1086.412926	-414.015246	230.675216	1017.299975	-420.316617	264.427808	1031.620319	-414.831570	243.592436	929.183781	-418.508611	294.994123	756.703349	-392.425092	287.577814	742.463393	-299.639614	182.925783	658.022589	-411.728770	134.751992	589.765053	-390.042557	54.721259	548.345652	-395.467240	140.356233	589.662449	-348.165824	-51.990426	465.886295	-391.063389	-135.668489	458.289877	-357.567316	122.797995	325.385597	-354.680247	39.293345	336.447757	-419.241832	-257.004607	964.691606	-231.616497	-75.434751	83.583203	-436.601074	-81.809246	79.974618	-39.060761	
1756	8.7800	689.118031	1439.245739	-84.111598	661.213294	1449.693340	-396.808437	664.814405	1500.462351	-236.960072	619.007710	1357.925534	-242.282349	568.537885	1130.941134	54.138007	726.329444	907.993699	-48.989543	561.023087	1133.037508	-499.073681	730.034236	908.980452	-398.389647	68.987175	1329.686500	-223.251641	231.949992	1344.771181	-371.136455	253.061453	1316.350229	-81.339609	242.421487	1259.354511	-349.364669	250.821272	1263.023464	-98.820128	106.381473	1359.988968	-170.612773	117.207868	1369.394900	-279.378183	164.916630	1209.829121	-38.280929	139.459980	1206.265230	-400.642044	261.948149	1078.319774	-35.099781	322.195840	1015.799732	-48.792066	347.658974	933.855682	-49.861735	348.911698	1034.047080	-67.596365	403.051401	813.218055	-82.310072	389.779670	798.642447	-184.394766	346.431275	680.641992	-56.338537	334.283317	593.945578	-77.148245	285.351103	522.329910	-71.568057	348.134117	593.105175	-114.366665	230.327115	392.463220	-73.413646	162.530518	351.470135	-102.684053	452.306979	333.937743	-120.156398	376.345588	301.496414	-47.970469	175.020670	1087.757076	-413.804729	235.366757	1025.057475	-431.704954	263.243888	1033.196772	-414.365599	242.927744	930.771866	-418.323599	294.550634	758.313699	-392.478529	287.198201	743.846183	-299.515196	182.213113	659.832789	-411.640239	133.787293	591.748891	-389.856283	53.879179	550.682412	-395.815125	139.440096	591.674133	-348.095442	-53.362861	468.416424	-391.054006	-136.791723	459.732990	-357.626965	122.799604	329.659993	-354.664993	39.204989	339.795954	-419.184419	-257.025346	964.695005	-231.605915	-75.460794	83.585093	-436.600757	-81.822314	79.961801	-39.052346	
1757	8.7850	688.077170	1439.491933	-84.481866	659.823480	1450.198729	-396.649512	663.316853	1500.633350	-236.988697	617.662986	1357.988016	-242.428411	568.725215	1131.016629	54.253615	726.299997	907.961270	-48.982780	561.179194	1133.240524	-498.906541	730.093568	908.932514	-398.396676	67.427652	1330.642525	-222.952077	230.395645	1345.368336	-370.665196	251.571526	1316.618547	-80.926531	240.546884	1259.919927	-348.712285	249.107577	1263.177462	-98.424483	104.918978	1360.817361	-170.225982	115.651930	1370.343992	-278.979745	162.596583	1210.310725	-38.038281	137.682317	1207.363802	-400.448573	258.382673	1078.009774	-34.312171	318.169963	1015.121594	-48.331703	342.391370	932.668768	-49.370053	345.126150	1032.910212	-67.480683	397.707140	811.739050	-81.655183	384.656883	797.224145	-183.882035	341.831765	678.741107	-55.825787	330.843314	591.891690	-76.498139	282.732012	519.736013	-71.323511	344.962279	591.250367	-113.753186	229.263234	389.187295	-73.410914	161.855434	347.806028	-102.882014	451.765080	331.494195	-119.958254	375.780412	298.666978	-47.843702	173.696269	1089.022386	-413.590259	234.334742	1026.581102	-431.446930	262.038424	1034.629227	-413.833489	242.140815	932.285786	-418.128470	294.026216	759.722212	-392.435605	286.767981	745.202342	-299.358922	181.492783	661.420128	-411.414474	132.818056	593.490292	-389.580914	52.873254	552.665083	-395.617270	138.392234	593.552031	-347.886537	-54.607637	470.541673	-390.984954	-138.046489	461.060421	-357.429835	122.816407	333.784231	-354.683966	39.105034	343.181877	-419.148429	-257.028795	964.707455	-231.606369	-75.457013	83.614519	-436.589431	-81.814340	80.097392	-38.952741	
